# xmcd
#
# Track frame offsets:
# 150
# 11817
# 27148
# 40613
# 54638
# 68782
# 81991
# 96578
# 112018
# 125843
# 138795
# 153130
#
# Disc length: 2207 seconds
#
#
# Revision: 0
# Processed by: cddbd v1.4PL0 Copyright (c) Steve Scherf et al.
# Submitted via: FreeRIP 2.35 
#
DISCID=9f089d0c
DTITLE=Truck Stop - Truckin' on New Tracks
DYEAR=1900
DGENRE=
TTITLE0=Is Anybody Goin'To San Antone
TTITLE1=It's So Hard For A Man
TTITLE2=You'll Find The Way
TTITLE3=Alabama Princess
TTITLE4=Prison Bound
TTITLE5=Roll in My Sweet Baby Arms
TTITLE6=Highway 59
TTITLE7=Goin' up to Washington
TTITLE8=I Take A Lot of Pride In What I am
TTITLE9=Lover, Please Come Back
TTITLE10=Please Gimme Peace
TTITLE11=Uh, Gee
EXTD=
EXTT0=
EXTT1=
EXTT2=
EXTT3=
EXTT4=
EXTT5=
EXTT6=
EXTT7=
EXTT8=
EXTT9=
EXTT10=
EXTT11=
PLAYORDER=
